# xmcd CD database file
#
# Track frame offsets:
#	150
#	60900
#	88927
#	138230
#	157995
#	182952
#	201687
#	214442
#	232937
#	256012
#	267565
#
# Disc length: 3921 seconds
#
# Revision: 10
# Processed by: cddbd v1.5.2PL0 Copyright (c) Steve Scherf et al.
# Submitted via: CDex 1.51
#
DISCID=a10f4f0b
DTITLE=Grieg - Forever Classics [CD12 of 16)
DYEAR=1998
DGENRE=Classical
TTITLE0=Piano Concerto In A Minor, Op. 16 - I. Allegro molto moderato
TTITLE1=Piano Concerto In A Minor, Op. 16 - II. Adagio
TTITLE2=Piano Concerto In A Minor, Op. 16 - III. Allegro moderato
TTITLE3=Peer Gynt Suite No.1, Op.46 - I. Morning-mood
TTITLE4=Peer Gynt Suite No.1, Op.46 - II. The Death Of Åse
TTITLE5=Peer Gynt Suite No.1, Op.46 - III. Anitra's Dance
TTITLE6=Peer Gynt Suite No.1, Op.46 - IV. In The Hall of the Mountain King
TTITLE7=Peer Gynt Suite No.2, Op.55 - I. Ingrid's Lament
TTITLE8=Peer Gynt Suite No.2, Op.55 - II. Arabian Dance
TTITLE9=Peer Gynt Suite No.2, Op.55 - III. Peer Gynt's Homecoming
TTITLE10=Peer Gynt Suite No.2, Op.55 - IV. Solveig's Song
EXTD=YEAR: 1998
EXTT0=
EXTT1=
EXTT2=
EXTT3=
EXTT4=
EXTT5=
EXTT6=
EXTT7=
EXTT8=
EXTT9=
EXTT10=
PLAYORDER=
